<svg width="147" height="112" viewBox="0 0 147 112" fill="none" xmlns="http://www.w3.org/2000/svg">
<path d="M48.368 65.196C47.728 65.196 47.1947 64.9613 46.768 64.492C46.3627 64.0227 46.0427 63.3933 45.808 62.604C45.5947 61.8147 45.4347 60.94 45.328 59.98C45.2427 58.9987 45.2 58.0067 45.2 57.004C45.2 56.5773 45.2 56.172 45.2 55.788C45.2213 55.3827 45.2427 54.9773 45.264 54.572C45.1573 54.5933 45.04 54.604 44.912 54.604C44.8053 54.604 44.6987 54.604 44.592 54.604C43.952 54.604 43.44 54.54 43.056 54.412C42.864 54.348 42.6827 54.188 42.512 53.932C42.3627 53.676 42.2347 53.3987 42.128 53.1C42.0427 52.8013 42 52.5773 42 52.428C42 52.3213 42.0213 52.268 42.064 52.268H42.096C42.608 52.4173 43.12 52.5347 43.632 52.62C44.144 52.7053 44.656 52.748 45.168 52.748H45.392C45.4347 52.2147 45.4773 51.7453 45.52 51.34C45.5627 50.9133 45.5947 50.5613 45.616 50.284C45.744 48.9613 45.8933 47.7133 46.064 46.54C46.256 45.3453 46.4587 44.2893 46.672 43.372C45.904 43.2653 45.1253 43.18 44.336 43.116C43.568 43.0307 42.7787 42.988 41.968 42.988C41.3493 42.988 40.7093 43.02 40.048 43.084C39.408 43.1267 38.7573 43.2227 38.096 43.372C36.7947 43.6493 35.696 44.076 34.8 44.652C33.904 45.228 33.232 45.8573 32.784 46.54C32.336 47.2227 32.112 47.884 32.112 48.524C32.112 49.1853 32.3787 49.7613 32.912 50.252C33.4667 50.7213 34.2987 50.956 35.408 50.956C35.5787 50.956 35.7493 50.956 35.92 50.956C36.0907 50.9347 36.272 50.9133 36.464 50.892C37.04 50.8067 37.7333 50.6253 38.544 50.348C39.3547 50.0707 40.1867 49.7293 41.04 49.324C41.9147 48.8973 42.6933 48.4387 43.376 47.948C43.44 47.884 43.568 47.852 43.76 47.852C43.8453 47.852 43.888 47.884 43.888 47.948C43.888 48.012 43.8347 48.1187 43.728 48.268C43.6427 48.396 43.472 48.588 43.216 48.844C42.1493 49.8893 40.9013 50.6573 39.472 51.148C38.064 51.6173 36.6773 51.852 35.312 51.852C35.0987 51.852 34.8853 51.852 34.672 51.852C34.48 51.8307 34.288 51.8093 34.096 51.788C32.9227 51.66 32.0053 51.212 31.344 50.444C30.704 49.676 30.384 48.7907 30.384 47.788C30.384 47.0413 30.5867 46.284 30.992 45.516C31.3973 44.7267 32.016 44.012 32.848 43.372C33.7013 42.7107 34.8 42.188 36.144 41.804C37.488 41.3987 39.0987 41.196 40.976 41.196C41.872 41.196 42.8427 41.2707 43.888 41.42C44.9333 41.5693 46 41.7507 47.088 41.964C47.1093 41.9213 47.12 41.8787 47.12 41.836C47.1413 41.772 47.1627 41.7187 47.184 41.676C47.2053 41.612 47.248 41.58 47.312 41.58C47.3973 41.5587 47.472 41.548 47.536 41.548C48.0693 41.548 48.528 41.6227 48.912 41.772C49.3173 41.9 49.52 42.1133 49.52 42.412C50.4587 42.5613 51.3653 42.7 52.24 42.828C53.136 42.9347 53.9787 42.988 54.768 42.988C55.5147 42.988 56.1867 42.924 56.784 42.796C57.1467 42.7107 57.424 42.5613 57.616 42.348C57.808 42.1133 57.904 41.8893 57.904 41.676C57.904 41.3773 57.7653 41.1533 57.488 41.004C57.4667 40.9827 57.456 40.9507 57.456 40.908C57.456 40.8013 57.4987 40.748 57.584 40.748C57.9893 40.748 58.3307 40.908 58.608 41.228C58.9067 41.548 59.056 41.9213 59.056 42.348C59.056 42.7533 58.864 43.148 58.48 43.532C58.1173 43.916 57.4773 44.1613 56.56 44.268C55.984 44.332 55.3973 44.364 54.8 44.364C53.8827 44.364 52.9547 44.3107 52.016 44.204C51.0987 44.076 50.1707 43.9373 49.232 43.788C49.0187 44.7693 48.7627 46.0813 48.464 47.724C48.1867 49.3453 47.9307 51.0413 47.696 52.812C48.848 52.7907 49.9787 52.716 51.088 52.588C52.2187 52.4387 53.1787 52.2147 53.968 51.916C54.0747 51.852 54.1493 51.82 54.192 51.82C54.3413 51.82 54.4267 51.884 54.448 52.012V52.076C54.448 52.204 54.3733 52.3107 54.224 52.396C54.0747 52.4813 53.9787 52.5453 53.936 52.588C53.552 52.7587 53.008 52.9507 52.304 53.164C51.6213 53.3773 50.864 53.5907 50.032 53.804C49.2 53.996 48.3573 54.1667 47.504 54.316C47.4613 54.9133 47.4187 55.4893 47.376 56.044C47.3333 56.5987 47.3013 57.1533 47.28 57.708C47.28 57.9213 47.2693 58.1453 47.248 58.38C47.248 58.6147 47.248 58.86 47.248 59.116C47.248 59.8413 47.28 60.5773 47.344 61.324C47.4293 62.0493 47.5787 62.6573 47.792 63.148C48.0053 63.6387 48.3253 63.884 48.752 63.884C48.9653 63.884 49.1573 63.82 49.328 63.692C49.4987 63.564 49.616 63.4253 49.68 63.276C49.744 63.1053 49.8187 63.02 49.904 63.02C50.032 63.02 50.096 63.1267 50.096 63.34V63.404C50.096 63.916 49.936 64.3427 49.616 64.684C49.3173 65.0253 48.9013 65.196 48.368 65.196ZM58.9957 63.82C58.2704 63.82 57.6731 63.628 57.2037 63.244C56.7557 62.86 56.4037 62.3587 56.1477 61.74C55.9131 61.1213 55.7424 60.4493 55.6357 59.724C55.5504 58.9773 55.5077 58.252 55.5077 57.548C55.5077 57.0147 55.5291 56.524 55.5717 56.076C55.6144 55.6067 55.6464 55.2013 55.6677 54.86C55.7744 53.964 56.0091 53.068 56.3717 52.172C56.7344 51.2547 57.2677 50.4973 57.9717 49.9C58.6757 49.2813 59.6037 48.972 60.7557 48.972C61.5664 48.972 62.1851 49.2387 62.6117 49.772C63.0597 50.284 63.3691 50.956 63.5397 51.788C63.7104 52.5987 63.7957 53.4627 63.7957 54.38C63.7957 54.636 63.7851 54.892 63.7637 55.148C63.7637 55.404 63.7531 55.66 63.7317 55.916C64.2651 56.5133 64.9051 56.812 65.6517 56.812C66.2277 56.812 66.7931 56.5987 67.3477 56.172C67.4757 56.0653 67.5931 56.012 67.6997 56.012C67.7851 56.012 67.8277 56.0653 67.8277 56.172C67.8277 56.364 67.7744 56.492 67.6677 56.556C67.3264 56.876 66.9637 57.1107 66.5798 57.26C66.1957 57.4093 65.8117 57.484 65.4277 57.484C64.7664 57.484 64.1584 57.292 63.6037 56.908C63.5611 57.3133 63.4971 57.6973 63.4117 58.06C63.3477 58.4013 63.2837 58.7 63.2197 58.956C63.0277 59.6173 62.7397 60.332 62.3557 61.1C61.9931 61.8467 61.5237 62.4867 60.9477 63.02C60.3931 63.5533 59.7424 63.82 58.9957 63.82ZM60.0517 62.06C60.4997 62.06 60.8731 61.8467 61.1717 61.42C61.4917 60.9933 61.7584 60.5027 61.9717 59.948C62.1851 59.3933 62.3344 58.924 62.4197 58.54C62.4837 58.2413 62.5371 57.9 62.5797 57.516C62.6224 57.132 62.6544 56.6733 62.6757 56.14C62.3771 55.884 62.1211 55.4253 61.9077 54.764C61.7157 54.0813 61.6197 53.4307 61.6197 52.812C61.6197 52.3853 61.6731 52.012 61.7797 51.692C61.8864 51.3507 62.0464 51.1267 62.2597 51.02C62.1317 50.7 61.9611 50.4013 61.7477 50.124C61.5344 49.8253 61.2357 49.676 60.8517 49.676C60.4891 49.676 60.1584 49.8893 59.8597 50.316C59.5824 50.7427 59.3371 51.2547 59.1237 51.852C58.9104 52.4493 58.7397 53.0147 58.6117 53.548C58.5051 54.0813 58.4411 54.4547 58.4197 54.668C58.3984 54.9027 58.3664 55.2653 58.3237 55.756C58.2811 56.2253 58.2597 56.748 58.2597 57.324C58.2597 58.0493 58.3024 58.7747 58.3877 59.5C58.4944 60.2253 58.6757 60.8333 58.9317 61.324C59.1877 61.8147 59.5611 62.06 60.0517 62.06ZM70.612 63.82C69.8867 63.82 69.2893 63.628 68.82 63.244C68.372 62.86 68.02 62.3587 67.764 61.74C67.5293 61.1213 67.3587 60.4493 67.252 59.724C67.1667 58.9773 67.124 58.252 67.124 57.548C67.124 57.0147 67.1453 56.524 67.188 56.076C67.2307 55.6067 67.2627 55.2013 67.284 54.86C67.3907 53.964 67.6253 53.068 67.988 52.172C68.3507 51.2547 68.884 50.4973 69.588 49.9C70.292 49.2813 71.22 48.972 72.372 48.972C73.1827 48.972 73.8013 49.2387 74.228 49.772C74.676 50.284 74.9853 50.956 75.156 51.788C75.3267 52.5987 75.412 53.4627 75.412 54.38C75.412 54.636 75.4013 54.892 75.38 55.148C75.38 55.404 75.3693 55.66 75.348 55.916C75.8813 56.5133 76.5213 56.812 77.268 56.812C77.844 56.812 78.4093 56.5987 78.964 56.172C79.092 56.0653 79.2093 56.012 79.316 56.012C79.4013 56.012 79.444 56.0653 79.444 56.172C79.444 56.364 79.3907 56.492 79.284 56.556C78.9427 56.876 78.58 57.1107 78.196 57.26C77.812 57.4093 77.428 57.484 77.044 57.484C76.3827 57.484 75.7747 57.292 75.22 56.908C75.1773 57.3133 75.1133 57.6973 75.028 58.06C74.964 58.4013 74.9 58.7 74.836 58.956C74.644 59.6173 74.356 60.332 73.972 61.1C73.6093 61.8467 73.14 62.4867 72.564 63.02C72.0093 63.5533 71.3587 63.82 70.612 63.82ZM71.668 62.06C72.116 62.06 72.4893 61.8467 72.788 61.42C73.108 60.9933 73.3747 60.5027 73.588 59.948C73.8013 59.3933 73.9507 58.924 74.036 58.54C74.1 58.2413 74.1533 57.9 74.196 57.516C74.2387 57.132 74.2707 56.6733 74.292 56.14C73.9933 55.884 73.7373 55.4253 73.524 54.764C73.332 54.0813 73.236 53.4307 73.236 52.812C73.236 52.3853 73.2893 52.012 73.396 51.692C73.5027 51.3507 73.6627 51.1267 73.876 51.02C73.748 50.7 73.5773 50.4013 73.364 50.124C73.1507 49.8253 72.852 49.676 72.468 49.676C72.1053 49.676 71.7747 49.8893 71.476 50.316C71.1987 50.7427 70.9533 51.2547 70.74 51.852C70.5267 52.4493 70.356 53.0147 70.228 53.548C70.1213 54.0813 70.0573 54.4547 70.036 54.668C70.0147 54.9027 69.9827 55.2653 69.94 55.756C69.8973 56.2253 69.876 56.748 69.876 57.324C69.876 58.0493 69.9187 58.7747 70.004 59.5C70.1107 60.2253 70.292 60.8333 70.548 61.324C70.804 61.8147 71.1773 62.06 71.668 62.06ZM87.8283 63.66C87.0603 63.66 86.4736 63.34 86.0683 62.7C85.6843 62.06 85.4176 61.2387 85.2683 60.236C85.1403 59.2333 85.0763 58.188 85.0763 57.1C84.7989 58.124 84.4469 59.1373 84.0203 60.14C83.5936 61.1427 83.1136 61.9747 82.5803 62.636C82.0683 63.2973 81.5243 63.628 80.9483 63.628C80.4363 63.628 80.0203 63.3933 79.7003 62.924C79.3803 62.4333 79.1456 61.7933 78.9963 61.004C78.8469 60.2147 78.7723 59.3613 78.7723 58.444C78.7723 57.7827 78.8256 57.036 78.9323 56.204C79.0389 55.372 79.2096 54.54 79.4443 53.708C79.6789 52.876 79.9989 52.1187 80.4043 51.436C80.8309 50.732 81.3536 50.1667 81.9723 49.74C82.5909 49.3133 83.3269 49.1 84.1803 49.1C84.6709 49.1 85.0656 49.2067 85.3643 49.42C85.4069 48.2893 85.4603 47.2013 85.5243 46.156C85.5883 45.1107 85.6629 44.2893 85.7483 43.692C85.8123 43.2867 85.8976 42.828 86.0043 42.316C86.1323 41.804 86.3029 41.3133 86.5163 40.844C86.7509 40.3533 87.0283 39.948 87.3483 39.628C87.6896 39.308 88.0949 39.148 88.5643 39.148C89.1616 39.148 89.6096 39.2973 89.9083 39.596C90.2069 39.8733 90.4096 40.236 90.5163 40.684C90.6443 41.1107 90.7083 41.5693 90.7083 42.06C90.7083 42.3373 90.6976 42.6253 90.6763 42.924C90.6549 43.2013 90.6229 43.4573 90.5803 43.692C90.4523 44.7373 90.2069 45.8893 89.8443 47.148C89.4816 48.4067 89.0549 49.6333 88.5643 50.828C88.0949 52.0013 87.6363 53.0147 87.1883 53.868C87.1669 54.0173 87.1456 54.348 87.1243 54.86C87.1029 55.372 87.0923 55.9693 87.0923 56.652C87.0923 57.292 87.1029 57.964 87.1243 58.668C87.1669 59.3507 87.2416 59.9907 87.3483 60.588C87.4549 61.164 87.5936 61.644 87.7643 62.028C87.9563 62.3907 88.2016 62.572 88.5003 62.572C88.7989 62.572 89.0656 62.4333 89.3003 62.156C89.5349 61.8573 89.7483 61.4947 89.9403 61.068C90.1323 60.6413 90.2816 60.236 90.3883 59.852C90.5163 59.4467 90.6123 59.148 90.6763 58.956C90.7189 58.7853 90.8043 58.7 90.9323 58.7C91.0389 58.7 91.0923 58.8173 91.0923 59.052V59.212C91.0923 59.788 90.9536 60.428 90.6763 61.132C90.4203 61.8147 90.0469 62.412 89.5563 62.924C89.0869 63.4147 88.5109 63.66 87.8283 63.66ZM87.1243 52.46C87.5296 51.5853 87.9136 50.604 88.2763 49.516C88.6389 48.4067 88.9376 47.276 89.1723 46.124C89.4283 44.972 89.5563 43.8947 89.5563 42.892C89.5563 42.7213 89.5563 42.5613 89.5563 42.412C89.5563 42.2627 89.5456 42.1133 89.5243 41.964C89.5029 41.6653 89.4389 41.4093 89.3323 41.196C89.2256 40.9613 89.0869 40.844 88.9163 40.844C88.8309 40.844 88.7243 40.9187 88.5963 41.068C88.4683 41.196 88.3403 41.4413 88.2123 41.804C88.1483 41.996 88.0629 42.4333 87.9563 43.116C87.8709 43.7773 87.7749 44.5667 87.6683 45.484C87.5829 46.38 87.4976 47.2973 87.4123 48.236C87.3269 49.1533 87.2523 49.9853 87.1883 50.732C87.1456 51.4573 87.1243 51.9693 87.1243 52.268V52.46ZM82.0683 61.004C82.4309 61.004 82.7723 60.748 83.0923 60.236C83.4123 59.7027 83.7003 59.0627 83.9563 58.316C84.2336 57.5693 84.4576 56.8653 84.6283 56.204C84.8629 55.3507 85.0229 54.4973 85.1083 53.644C85.2149 52.7693 85.2789 51.8947 85.3003 51.02L85.3323 50.124C85.2043 50.06 85.0549 50.028 84.8843 50.028C84.4149 50.028 83.9349 50.2627 83.4443 50.732C82.9536 51.18 82.5589 51.7133 82.2603 52.332C81.8763 53.1427 81.5883 54.092 81.3963 55.18C81.2256 56.268 81.1403 57.292 81.1403 58.252C81.1403 58.4013 81.1403 58.5613 81.1403 58.732C81.1403 58.9027 81.1509 59.0627 81.1723 59.212C81.2149 59.852 81.3216 60.3107 81.4923 60.588C81.6629 60.8653 81.8549 61.004 82.0683 61.004ZM94.648 47.308C94.2427 47.308 93.88 47.1587 93.56 46.86C93.2613 46.5613 93.112 46.1987 93.112 45.772C93.112 45.3453 93.2613 44.9827 93.56 44.684C93.88 44.3853 94.2427 44.236 94.648 44.236C95.0747 44.236 95.4373 44.3853 95.736 44.684C96.0347 44.9827 96.184 45.3453 96.184 45.772C96.184 46.1987 96.0347 46.5613 95.736 46.86C95.4373 47.1587 95.0747 47.308 94.648 47.308ZM94.424 63.66C93.656 63.66 93.048 63.34 92.6 62.7C92.1733 62.0387 91.864 61.2067 91.672 60.204C91.5013 59.18 91.416 58.1133 91.416 57.004C91.416 56.0867 91.4587 55.2013 91.544 54.348C91.6507 53.4733 91.768 52.716 91.896 52.076C92.0453 51.4147 92.184 50.9453 92.312 50.668C92.44 50.412 92.6427 50.1773 92.92 49.964C93.2187 49.7293 93.6133 49.612 94.104 49.612C94.3813 49.612 94.6587 49.644 94.936 49.708C94.7227 50.4547 94.4667 51.4893 94.168 52.812C93.8693 54.1347 93.72 55.596 93.72 57.196C93.72 57.7507 93.7307 58.348 93.752 58.988C93.7733 59.6067 93.8267 60.1933 93.912 60.748C93.9973 61.2813 94.1253 61.7187 94.296 62.06C94.488 62.4013 94.7333 62.572 95.032 62.572H95.064C95.2347 62.572 95.416 62.4867 95.608 62.316C95.8213 62.1453 96.0453 61.8253 96.28 61.356C96.6 60.7373 96.8987 59.9373 97.176 58.956C97.2187 58.764 97.304 58.668 97.432 58.668C97.5387 58.668 97.592 58.796 97.592 59.052V59.18C97.5493 59.7347 97.4 60.364 97.144 61.068C96.888 61.772 96.5253 62.38 96.056 62.892C95.608 63.404 95.064 63.66 94.424 63.66ZM102.451 64.108C101.427 64.108 100.595 63.7987 99.9553 63.18C99.3366 62.54 98.8779 61.7613 98.5793 60.844C98.3019 59.9053 98.1633 58.988 98.1633 58.092C98.1633 57.068 98.2699 56.044 98.4833 55.02C98.6966 53.9747 99.0273 53.0253 99.4753 52.172C99.9446 51.3187 100.531 50.636 101.235 50.124C101.939 49.5907 102.771 49.324 103.731 49.324C104.414 49.324 104.947 49.5267 105.331 49.932C105.715 50.3373 105.907 50.9347 105.907 51.724C105.907 52.7907 105.641 53.74 105.107 54.572C104.595 55.3827 103.945 56.044 103.155 56.556C102.366 57.068 101.545 57.42 100.691 57.612V57.772C100.691 58.6467 100.777 59.468 100.947 60.236C101.139 60.9827 101.438 61.5907 101.843 62.06C102.27 62.508 102.825 62.732 103.507 62.732C104.339 62.732 104.979 62.3907 105.427 61.708C105.875 61.004 106.227 60.1187 106.483 59.052C106.505 58.9667 106.537 58.892 106.579 58.828C106.643 58.7427 106.697 58.7 106.739 58.7C106.931 58.7 107.017 58.8387 106.995 59.116C106.931 59.692 106.803 60.236 106.611 60.748C106.419 61.26 106.217 61.6973 106.003 62.06C105.598 62.7213 105.107 63.2227 104.531 63.564C103.977 63.9267 103.283 64.108 102.451 64.108ZM100.723 56.876C101.406 56.7053 102.003 56.3747 102.515 55.884C103.027 55.372 103.422 54.7747 103.699 54.092C103.998 53.4093 104.147 52.716 104.147 52.012V51.852C104.147 51.468 104.083 51.1053 103.955 50.764C103.849 50.4227 103.635 50.252 103.315 50.252C102.931 50.252 102.59 50.444 102.291 50.828C102.014 51.1907 101.769 51.66 101.555 52.236C101.363 52.812 101.203 53.4093 101.075 54.028C100.947 54.6467 100.851 55.212 100.787 55.724C100.745 56.236 100.723 56.6093 100.723 56.844V56.876ZM110.634 63.852C109.674 63.852 108.863 63.628 108.202 63.18C107.562 62.7107 107.242 61.8893 107.242 60.716C107.242 60.6733 107.242 60.5773 107.242 60.428C107.263 60.2573 107.284 60.0867 107.306 59.916C107.178 59.6813 107.114 59.3613 107.114 58.956C107.114 58.7 107.156 58.476 107.242 58.284C107.327 58.092 107.455 57.996 107.626 57.996H107.658C107.722 57.996 107.807 58.0707 107.914 58.22C108.191 57.4307 108.447 56.62 108.682 55.788C108.916 54.9347 109.13 54.1773 109.322 53.516C109.535 52.748 109.802 51.9267 110.122 51.052C110.463 50.156 110.996 49.4733 111.722 49.004C112.276 48.6413 112.874 48.46 113.514 48.46C113.556 48.46 113.61 48.4707 113.674 48.492C113.738 48.492 113.791 48.492 113.834 48.492C114.004 48.5133 114.09 48.588 114.09 48.716C114.09 48.8653 114.015 48.94 113.866 48.94C113.631 48.9613 113.46 49.1533 113.354 49.516C113.247 49.8573 113.194 50.252 113.194 50.7C113.194 50.8067 113.194 50.924 113.194 51.052C113.194 51.18 113.204 51.2973 113.226 51.404C113.311 52.108 113.503 52.8867 113.802 53.74C114.1 54.572 114.378 55.4147 114.634 56.268C114.911 57.1 115.05 57.8787 115.05 58.604V58.764C115.05 59.0413 115.028 59.34 114.986 59.66C114.964 59.98 114.9 60.2893 114.794 60.588C115.092 60.5667 115.38 60.5347 115.658 60.492C115.956 60.428 116.223 60.3533 116.458 60.268C116.756 60.14 116.991 59.9907 117.162 59.82C117.354 59.6493 117.514 59.4573 117.642 59.244C117.684 59.18 117.738 59.148 117.802 59.148C117.972 59.148 118.058 59.2547 118.058 59.468C118.058 59.532 118.036 59.6067 117.994 59.692C117.759 60.1613 117.332 60.5453 116.714 60.844C116.095 61.1427 115.37 61.3133 114.538 61.356C114.239 62.0387 113.77 62.6253 113.13 63.116C112.511 63.6067 111.679 63.852 110.634 63.852ZM112.17 60.236C112.212 60.0013 112.244 59.756 112.266 59.5C112.287 59.244 112.298 58.988 112.298 58.732C112.298 58.3267 112.276 57.9213 112.234 57.516C112.191 57.0893 112.138 56.6733 112.074 56.268C111.924 55.2653 111.743 54.348 111.53 53.516C111.338 52.684 111.242 51.9373 111.242 51.276C111.242 50.9347 111.274 50.6253 111.338 50.348C111.231 50.348 111.114 50.508 110.986 50.828C110.858 51.148 110.73 51.5107 110.602 51.916C110.474 52.3213 110.367 52.684 110.282 53.004C110.026 53.9213 109.748 54.8707 109.45 55.852C109.151 56.812 108.831 57.7613 108.49 58.7C108.724 58.8493 108.991 58.9987 109.29 59.148C109.61 59.2973 109.919 59.436 110.218 59.564C110.495 59.692 110.794 59.82 111.114 59.948C111.455 60.0547 111.807 60.1507 112.17 60.236ZM109.77 62.796H109.898C110.282 62.7533 110.666 62.6253 111.05 62.412C111.434 62.1773 111.711 61.8253 111.882 61.356C111.882 61.3347 111.882 61.324 111.882 61.324C111.903 61.3027 111.914 61.2813 111.914 61.26C111.124 61.196 110.378 61.1 109.674 60.972C108.991 60.8227 108.436 60.6413 108.01 60.428C108.01 60.492 107.999 60.556 107.978 60.62C107.978 60.684 107.978 60.7373 107.978 60.78C107.978 61.42 108.138 61.9213 108.458 62.284C108.799 62.6253 109.236 62.796 109.77 62.796Z" fill="#B4310A"/>
</svg>
